<svg width="180" height="30" viewBox="0 0 180 30" fill="none" xmlns="http://www.w3.org/2000/svg">
<path d="M13.056 6.248V8.96H8.592V23H5.232V8.96H0.768V6.248H13.056ZM20.5956 23.216C19.5076 23.216 18.5316 23.024 17.6676 22.64C16.8036 22.24 16.1156 21.704 15.6036 21.032C15.1076 20.36 14.8356 19.616 14.7876 18.8H18.1716C18.2356 19.312 18.4836 19.736 18.9156 20.072C19.3636 20.408 19.9156 20.576 20.5716 20.576C21.2116 20.576 21.7076 20.448 22.0596 20.192C22.4276 19.936 22.6116 19.608 22.6116 19.208C22.6116 18.776 22.3876 18.456 21.9396 18.248C21.5076 18.024 20.8116 17.784 19.8516 17.528C18.8596 17.288 18.0436 17.04 17.4036 16.784C16.7796 16.528 16.2356 16.136 15.7716 15.608C15.3236 15.08 15.0996 14.368 15.0996 13.472C15.0996 12.736 15.3076 12.064 15.7236 11.456C16.1556 10.848 16.7636 10.368 17.5476 10.016C18.3476 9.664 19.2836 9.488 20.3556 9.488C21.9396 9.488 23.2036 9.888 24.1476 10.688C25.0916 11.472 25.6116 12.536 25.7076 13.88H22.4916C22.4436 13.352 22.2196 12.936 21.8196 12.632C21.4356 12.312 20.9156 12.152 20.2596 12.152C19.6516 12.152 19.1796 12.264 18.8436 12.488C18.5236 12.712 18.3636 13.024 18.3636 13.424C18.3636 13.872 18.5876 14.216 19.0356 14.456C19.4836 14.68 20.1796 14.912 21.1236 15.152C22.0836 15.392 22.8756 15.64 23.4996 15.896C24.1236 16.152 24.6596 16.552 25.1076 17.096C25.5716 17.624 25.8116 18.328 25.8276 19.208C25.8276 19.976 25.6116 20.664 25.1796 21.272C24.7636 21.88 24.1556 22.36 23.3556 22.712C22.5716 23.048 21.6516 23.216 20.5956 23.216ZM27.7217 16.304C27.7217 14.96 27.9857 13.768 28.5137 12.728C29.0577 11.688 29.7857 10.888 30.6977 10.328C31.6257 9.768 32.6577 9.488 33.7937 9.488C34.7857 9.488 35.6497 9.688 36.3857 10.088C37.1377 10.488 37.7377 10.992 38.1857 11.6V9.704H41.5697V23H38.1857V21.056C37.7537 21.68 37.1537 22.2 36.3857 22.616C35.6337 23.016 34.7617 23.216 33.7697 23.216C32.6497 23.216 31.6257 22.928 30.6977 22.352C29.7857 21.776 29.0577 20.968 28.5137 19.928C27.9857 18.872 27.7217 17.664 27.7217 16.304ZM38.1857 16.352C38.1857 15.536 38.0257 14.84 37.7057 14.264C37.3857 13.672 36.9537 13.224 36.4097 12.92C35.8657 12.6 35.2817 12.44 34.6577 12.44C34.0337 12.44 33.4577 12.592 32.9297 12.896C32.4017 13.2 31.9697 13.648 31.6337 14.24C31.3137 14.816 31.1537 15.504 31.1537 16.304C31.1537 17.104 31.3137 17.808 31.6337 18.416C31.9697 19.008 32.4017 19.464 32.9297 19.784C33.4737 20.104 34.0497 20.264 34.6577 20.264C35.2817 20.264 35.8657 20.112 36.4097 19.808C36.9537 19.488 37.3857 19.04 37.7057 18.464C38.0257 17.872 38.1857 17.168 38.1857 16.352ZM48.2113 11.648C48.6433 11.008 49.2353 10.488 49.9873 10.088C50.7553 9.688 51.6273 9.488 52.6033 9.488C53.7393 9.488 54.7633 9.768 55.6753 10.328C56.6033 10.888 57.3313 11.688 57.8593 12.728C58.4033 13.752 58.6753 14.944 58.6753 16.304C58.6753 17.664 58.4033 18.872 57.8593 19.928C57.3313 20.968 56.6033 21.776 55.6753 22.352C54.7633 22.928 53.7393 23.216 52.6033 23.216C51.6113 23.216 50.7393 23.024 49.9873 22.64C49.2513 22.24 48.6593 21.728 48.2113 21.104V23H44.8513V5.24H48.2113V11.648ZM55.2433 16.304C55.2433 15.504 55.0753 14.816 54.7393 14.24C54.4193 13.648 53.9873 13.2 53.4433 12.896C52.9153 12.592 52.3393 12.44 51.7153 12.44C51.1073 12.44 50.5313 12.6 49.9873 12.92C49.4593 13.224 49.0273 13.672 48.6913 14.264C48.3713 14.856 48.2113 15.552 48.2113 16.352C48.2113 17.152 48.3713 17.848 48.6913 18.44C49.0273 19.032 49.4593 19.488 49.9873 19.808C50.5313 20.112 51.1073 20.264 51.7153 20.264C52.3393 20.264 52.9153 20.104 53.4433 19.784C53.9873 19.464 54.4193 19.008 54.7393 18.416C55.0753 17.824 55.2433 17.12 55.2433 16.304ZM62.8209 8.12C62.2289 8.12 61.7329 7.936 61.3329 7.568C60.9489 7.184 60.7569 6.712 60.7569 6.152C60.7569 5.592 60.9489 5.128 61.3329 4.76C61.7329 4.376 62.2289 4.184 62.8209 4.184C63.4129 4.184 63.9009 4.376 64.2849 4.76C64.6849 5.128 64.8849 5.592 64.8849 6.152C64.8849 6.712 64.6849 7.184 64.2849 7.568C63.9009 7.936 63.4129 8.12 62.8209 8.12ZM64.4769 9.704V23H61.1169V9.704H64.4769ZM71.7086 12.464V18.896C71.7086 19.344 71.8126 19.672 72.0206 19.88C72.2446 20.072 72.6126 20.168 73.1246 20.168H74.6846V23H72.5726C69.7406 23 68.3246 21.624 68.3246 18.872V12.464H66.7406V9.704H68.3246V6.416H71.7086V9.704H74.6846V12.464H71.7086Z" fill="#1A1C1A"/>
<path d="M84.928 19.808H78.256L77.152 23H73.624L79.648 6.224H83.56L89.584 23H86.032L84.928 19.808ZM84.016 17.12L81.592 10.112L79.168 17.12H84.016ZM95.1957 11.768C95.6277 11.064 96.1877 10.512 96.8757 10.112C97.5797 9.712 98.3797 9.512 99.2757 9.512V13.04H98.3877C97.3317 13.04 96.5317 13.288 95.9877 13.784C95.4597 14.28 95.1957 15.144 95.1957 16.376V23H91.8357V9.704H95.1957V11.768ZM114.091 9.704V23H110.707V21.32C110.275 21.896 109.707 22.352 109.003 22.688C108.315 23.008 107.563 23.168 106.747 23.168C105.707 23.168 104.787 22.952 103.987 22.52C103.187 22.072 102.555 21.424 102.091 20.576C101.643 19.712 101.419 18.688 101.419 17.504V9.704H104.779V17.024C104.779 18.08 105.043 18.896 105.571 19.472C106.099 20.032 106.819 20.312 107.731 20.312C108.659 20.312 109.387 20.032 109.915 19.472C110.443 18.896 110.707 18.08 110.707 17.024V9.704H114.091ZM120.766 11.648C121.198 11.008 121.79 10.488 122.542 10.088C123.31 9.688 124.182 9.488 125.158 9.488C126.294 9.488 127.318 9.768 128.23 10.328C129.158 10.888 129.886 11.688 130.414 12.728C130.958 13.752 131.23 14.944 131.23 16.304C131.23 17.664 130.958 18.872 130.414 19.928C129.886 20.968 129.158 21.776 128.23 22.352C127.318 22.928 126.294 23.216 125.158 23.216C124.166 23.216 123.294 23.024 122.542 22.64C121.806 22.24 121.214 21.728 120.766 21.104V23H117.406V5.24H120.766V11.648ZM127.798 16.304C127.798 15.504 127.63 14.816 127.294 14.24C126.974 13.648 126.542 13.2 125.998 12.896C125.47 12.592 124.894 12.44 124.27 12.44C123.662 12.44 123.086 12.6 122.542 12.92C122.014 13.224 121.582 13.672 121.246 14.264C120.926 14.856 120.766 15.552 120.766 16.352C120.766 17.152 120.926 17.848 121.246 18.44C121.582 19.032 122.014 19.488 122.542 19.808C123.086 20.112 123.662 20.264 124.27 20.264C124.894 20.264 125.47 20.104 125.998 19.784C126.542 19.464 126.974 19.008 127.294 18.416C127.63 17.824 127.798 17.12 127.798 16.304ZM132.808 16.304C132.808 14.96 133.072 13.768 133.6 12.728C134.144 11.688 134.872 10.888 135.784 10.328C136.712 9.768 137.744 9.488 138.88 9.488C139.872 9.488 140.736 9.688 141.472 10.088C142.224 10.488 142.824 10.992 143.272 11.6V9.704H146.656V23H143.272V21.056C142.84 21.68 142.24 22.2 141.472 22.616C140.72 23.016 139.848 23.216 138.856 23.216C137.736 23.216 136.712 22.928 135.784 22.352C134.872 21.776 134.144 20.968 133.6 19.928C133.072 18.872 132.808 17.664 132.808 16.304ZM143.272 16.352C143.272 15.536 143.112 14.84 142.792 14.264C142.472 13.672 142.04 13.224 141.496 12.92C140.952 12.6 140.368 12.44 139.744 12.44C139.12 12.44 138.544 12.592 138.016 12.896C137.488 13.2 137.056 13.648 136.72 14.24C136.4 14.816 136.24 15.504 136.24 16.304C136.24 17.104 136.4 17.808 136.72 18.416C137.056 19.008 137.488 19.464 138.016 19.784C138.56 20.104 139.136 20.264 139.744 20.264C140.368 20.264 140.952 20.112 141.496 19.808C142.04 19.488 142.472 19.04 142.792 18.464C143.112 17.872 143.272 17.168 143.272 16.352ZM162.657 9.704L154.425 29.288H150.849L153.729 22.664L148.401 9.704H152.169L155.601 18.992L159.081 9.704H162.657ZM163.604 16.304C163.604 14.96 163.868 13.768 164.396 12.728C164.941 11.688 165.669 10.888 166.581 10.328C167.509 9.768 168.541 9.488 169.677 9.488C170.669 9.488 171.533 9.688 172.269 10.088C173.021 10.488 173.621 10.992 174.069 11.6V9.704H177.453V23H174.069V21.056C173.637 21.68 173.037 22.2 172.269 22.616C171.517 23.016 170.645 23.216 169.653 23.216C168.533 23.216 167.509 22.928 166.581 22.352C165.669 21.776 164.941 20.968 164.396 19.928C163.868 18.872 163.604 17.664 163.604 16.304ZM174.069 16.352C174.069 15.536 173.909 14.84 173.589 14.264C173.269 13.672 172.837 13.224 172.293 12.92C171.749 12.6 171.165 12.44 170.541 12.44C169.917 12.44 169.341 12.592 168.812 12.896C168.285 13.2 167.853 13.648 167.517 14.24C167.197 14.816 167.037 15.504 167.037 16.304C167.037 17.104 167.197 17.808 167.517 18.416C167.853 19.008 168.285 19.464 168.812 19.784C169.357 20.104 169.933 20.264 170.541 20.264C171.165 20.264 171.749 20.112 172.293 19.808C172.837 19.488 173.269 19.04 173.589 18.464C173.909 17.872 174.069 17.168 174.069 16.352Z" fill="#006D35"/>
</svg>
